<svg width="58" height="58" viewBox="0 0 58 58" fill="none" xmlns="http://www.w3.org/2000/svg">
<path d="M0 29C0 12.9837 12.9837 0 29 0V0C45.0163 0 58 12.9837 58 29V29C58 45.0163 45.0163 58 29 58V58C12.9837 58 0 45.0163 0 29V29Z" fill="#FAFAFA"/>
<path d="M39 40.25C39 36.7982 34.5228 34 29 34C23.4772 34 19 36.7982 19 40.25M29 30.25C25.5482 30.25 22.75 27.4518 22.75 24C22.75 20.5482 25.5482 17.75 29 17.75C32.4518 17.75 35.25 20.5482 35.25 24C35.25 27.4518 32.4518 30.25 29 30.25Z" stroke="#0C0C0C" stroke-width="2.5" stroke-linecap="round" stroke-linejoin="round"/>
</svg>
